# xmcd
#
# Track frame offsets: 
#        150
#        14508
#        26644
#        40429
#        55855
#        67610
#        75629
#        89809
#        101314
#        111392
#        120331
#        128830
#        136489
#        148324
#        159013
#        168461
#        181340
#        191955
#        206723
#
# Disc length: 2842 seconds
#
# Revision: 0
# Processed by: cddbd v1.5.2PL0 Copyright (c) Steve Scherf et al.
# Submitted via: ExactAudioCopy v0.99pb3
#
DISCID=0d0b1813
DTITLE=Etta Baker - Etta Baker - Railroad Bill
DYEAR=1999
DGENRE=Black Metal
TTITLE0=Carolina Breakdown
TTITLE1=Railroad Bill
TTITLE2=I Get the Blues When it Rains
TTITLE3=Careless Love
TTITLE4=Don't Let Your Deal Go Down
TTITLE5=Sunny Tennessee
TTITLE6=Mint Julep
TTITLE7=Browns Boogie
TTITLE8=Lonesome Road Blues
TTITLE9=Goodbye Booze
TTITLE10=Nobody's Business
TTITLE11=One-Dime Blues
TTITLE12=Going Down the Road Feeling Bad
TTITLE13=Candyman
TTITLE14=Miss a Little Miss
TTITLE15=Baby Let Me Lay it On You
TTITLE16=Chilly Winds
TTITLE17=John Henry
TTITLE18=Cripple Creek
EXTD=
EXTT0=
EXTT1=
EXTT2=
EXTT3=
EXTT4=
EXTT5=
EXTT6=
EXTT7=
EXTT8=
EXTT9=
EXTT10=
EXTT11=
EXTT12=
EXTT13=
EXTT14=
EXTT15=
EXTT16=
EXTT17=
EXTT18=
PLAYORDER=
